<svg xmlns="http://www.w3.org/2000/svg" width="640" height="150" viewbox="0 0 640 150"><path fill="#49B749" d="M431.45 18.23c6.1 0 11.07 4.96 11.07 11.07s-4.96 11.07-11.07 11.07c-6.12 0-11.07-4.96-11.07-11.07s4.95-11.07 11.07-11.07"/><path fill="#FEBE10" d="M343.45 18.23c6.12 0 11.07 4.96 11.07 11.07s-4.95 11.07-11.07 11.07c-6.1 0-11.06-4.96-11.06-11.07s4.9-11.07 11-11.07"/><path fill="#F16055" d="M16.37 18.23c6.1 0 11.07 4.96 11.07 11.07s-4.96 11.07-11.07 11.07C10.25 40.37 5.3 35.4 5.3 29.3s4.95-11.07 11.07-11.07"/><path d="M7.77 144V48.56h17.35V144H7.77zm131.73-4.34c-6.32 3.16-18.94 6.3-35.1 6.3-37.47 0-65.67-23.65-65.67-67.23 0-41.6 28.2-69.8 69.4-69.8 16.57 0 27.02 3.55 31.56 5.9l-4.2 14c-6.5-3.14-15.8-5.5-26.8-5.5-31.2 0-51.9 19.9-51.9 54.8 0 32.55 18.7 53.45 51.03 53.45 10.45 0 21.1-2.17 28-5.52l3.55 13.6zM152.5 4h17.36v140H152.5V4zM244 144l-1.38-12.02h-.6c-5.32 7.5-15.57 14.2-29.18 14.2-19.32 0-29.18-13.6-29.18-27.42 0-23.07 20.5-35.7 57.38-35.5V81.3c0-7.9-2.17-22.1-21.7-22.1-8.86 0-18.13 2.77-24.84 7.1l-3.94-11.43c7.9-5.12 19.32-8.48 31.35-8.48 29.2 0 36.3 19.9 36.3 39v35.7c0 8.2.4 16.3 1.6 22.8H244zm-2.56-48.7C222.5 94.9 201 98.25 201 116.8c0 11.23 7.5 16.55 16.38 16.55 12.42 0 20.3-7.88 23.07-15.97.6-1.77 1-3.75 1-5.52V95.3zm36.86-16.96c0-11.24-.2-20.9-.78-29.78h15.2l.58 18.73h.8c4.32-12.9 14.77-20.9 26.4-20.9 1.98 0 3.36.2 4.94.5v16.4c-1.77-.4-3.55-.6-5.92-.6-12.22 0-20.9 9.3-23.26 22.3-.4 2.32-.8 5.1-.8 8.1V144H278.3V78.34zM334.9 144V48.56h17.36V144H334.9zm40.03 0V61.78h-13.4V48.56h13.4v-4.53c0-13.4 2.96-25.64 11.04-33.33 6.5-6.3 15.2-8.87 23.27-8.87 6.1 0 11.44 1.38 14.8 2.76l-2.4 13.4c-2.55-1.2-6.1-2.2-11.03-2.2-14.8 0-18.5 13-18.5 27.6v5.1h23.1v13.2h-23.1V144H375zm47.92 0V48.56h17.35V144h-17.35zm47.9-44.56c.4 23.46 15.4 33.13 32.75 33.13 12.42 0 19.9-2.17 26.42-4.93l2.96 12.42c-6.12 2.76-16.57 5.9-31.75 5.9-29.38 0-46.93-19.3-46.93-48.1s16.96-51.47 44.76-51.47c31.16 0 39.44 27.4 39.44 44.9 0 3.5-.4 6.3-.6 8.1h-67.04zM521.65 87c.2-11.03-4.54-28.18-24.06-28.18-17.6 0-25.3 16.17-26.7 28.2h50.7zM634.43 4v115.35c0 8.48.2 18.14.8 24.65h-15.6l-.78-16.56h-.4c-5.32 10.65-16.95 18.73-32.53 18.73-23.06 0-40.8-19.52-40.8-48.5-.2-31.75 19.52-51.28 42.8-51.28 14.6 0 24.44 6.9 28.77 14.6h.4V4h17.3zm-17.35 83.4c0-2.16-.2-5.12-.8-7.3-2.55-11.03-12.02-20.1-25.03-20.1-17.95 0-28.6 15.78-28.6 36.88 0 19.32 9.47 35.3 28.2 35.3 11.63 0 22.28-7.7 25.44-20.7.5-2.38.7-4.74.7-7.5V87.4z"/></svg>