<?xml version="1.0" encoding="utf-8"?>
<!-- Generator: Adobe Illustrator 21.0.2, SVG Export Plug-In . SVG Version: 6.00 Build 0)  -->
<svg version="1.1" id="Layer_1" xmlns="http://www.w3.org/2000/svg" xmlns:xlink="http://www.w3.org/1999/xlink" x="0px" y="0px"
	 viewBox="0 0 158.7 62.9" style="enable-background:new 0 0 158.7 62.9;" xml:space="preserve">
<style type="text/css">
	.st0{fill:#182C54;}
</style>
<path class="st0" d="M19.7,56v5.6h-1.6V56H16v-1.5h5.9V56H19.7z M27.3,61.7c2.2,0,3.7-1.6,3.7-3.7c0-2.1-1.4-3.7-3.6-3.7
	s-3.7,1.6-3.7,3.7C23.7,60.1,25.1,61.7,27.3,61.7 M27.3,55.8c1.1,0,1.9,0.9,1.9,2.2s-0.8,2.2-1.9,2.2s-1.9-0.9-1.9-2.2
	S26.2,55.8,27.3,55.8 M39.1,61.6l-1.7-2.7c0.8-0.5,1.2-1.2,1.2-2.1c0-1.3-0.9-2.4-3.1-2.4c-0.8,0-1.5,0-2.1,0.1v7H35v-2.3
	c0.2,0,0.4,0,0.6,0c0.1,0,0.2,0,0.3,0l1.2,2.3h2V61.6z M35.8,55.9c0.7,0,1.2,0.3,1.2,0.9c0,0.7-0.5,1.1-1.3,1.1c-0.2,0-0.3,0-0.5,0
	v-2C35.3,55.9,35.5,55.9,35.8,55.9 M41.3,61.6h1.6v-7.1h-1.6V61.6z M51.8,61.7v-7.2h-1.6v3.7L46,54.3h-0.2v7.2h1.6v-3.7l4.3,3.9
	H51.8z M58,61.7c2.2,0,3.7-1.6,3.7-3.7c0-2.1-1.4-3.7-3.6-3.7c-2.2,0-3.7,1.6-3.7,3.7C54.4,60.1,55.8,61.7,58,61.7 M58,55.8
	c1.1,0,1.9,0.9,1.9,2.2s-0.8,2.2-1.9,2.2c-1.1,0-1.9-0.9-1.9-2.2S56.9,55.8,58,55.8 M63.8,62.9c0.7-0.3,1.3-1.1,1.3-1.8
	c0-0.5-0.3-0.9-0.8-0.9c-0.4,0-0.7,0.3-0.7,0.7s0.3,0.7,0.8,0.8c-0.1,0.4-0.3,0.7-0.7,1.1L63.8,62.9 M69.1,61.6h1.6v-7.1h-1.6V61.6z
	 M78.9,56v-1.5H73V56h2.1v5.6h1.6V56H78.9z M86.4,61.6l-3.3-7.2h-0.2l-3.3,7.2h1.7l0.5-1.3h2.5l0.5,1.3H86.4z M83.7,59h-1.4l0.7-1.7
	L83.7,59z M92.9,61.6v-1.5H90v-5.6h-1.6v7.1H92.9z M95.1,61.6h1.6v-7.1h-1.6V61.6z M105.7,61.6l-3.3-7.2h-0.2l-3.3,7.2h1.7l0.5-1.3
	h2.5l0.5,1.3H105.7z M102.9,59h-1.4l0.7-1.7L102.9,59z M107.9,62.9c0.7-0.3,1.3-1.1,1.3-1.8c0-0.5-0.3-0.9-0.8-0.9
	c-0.4,0-0.7,0.3-0.7,0.7s0.3,0.7,0.8,0.8c-0.1,0.4-0.3,0.7-0.7,1.1L107.9,62.9 M115.2,61.6v-7.2h-0.6l-2.7,1l0.5,1.3l1.2-0.5v5.4
	H115.2z M120.3,61.7c1.6,0,2.6-0.9,2.6-2c0-0.7-0.3-1.4-1.2-1.7c0.6-0.3,1-0.9,1-1.6c0-1.1-0.9-2-2.4-2s-2.4,0.9-2.4,2
	c0,0.7,0.3,1.3,1,1.6c-0.8,0.3-1.2,1-1.2,1.7C117.7,60.8,118.7,61.7,120.3,61.7 M120.3,58.6c0.5,0,0.9,0.3,0.9,0.8s-0.3,0.8-0.9,0.8
	c-0.5,0-0.9-0.4-0.9-0.8C119.4,58.9,119.8,58.6,120.3,58.6 M120.3,55.8c0.6,0,0.8,0.4,0.8,0.9s-0.4,0.8-0.8,0.8
	c-0.5,0-0.8-0.3-0.8-0.8C119.5,56.1,119.8,55.8,120.3,55.8 M127.7,54.3c-1.8,0-2.7,1.3-2.7,2.5c0,1.3,0.9,2.3,2.2,2.3
	c0.5,0,0.8-0.1,1.1-0.3c-0.7,0.7-1.8,1.3-2.9,1.7l0.7,1.3c2.3-1,4.2-2.2,4.2-4.8C130.3,55.6,129.3,54.3,127.7,54.3 M127.7,58
	c-0.6,0-1-0.5-1-1.1s0.4-1.1,1-1.1c0.6,0,1,0.5,1,1.1S128.2,58,127.7,58 M134.3,61.7c2,0,3.1-1.1,3.1-2.5c0-1.2-0.8-2.2-2.4-2.2
	c-0.1,0-0.3,0-0.6,0v-1.1h2.8v-1.5h-4.4v4l0.1,0.1c0.4-0.1,1-0.2,1.4-0.2c1,0,1.5,0.5,1.5,1c0,0.6-0.5,0.9-1.5,0.9
	c-0.5,0-1-0.1-1.5-0.3l-0.3,1.4C133,61.6,133.6,61.7,134.3,61.7"/>
<path class="st0" d="M17.8,40.3h8.6l0.9-4.1h4v4.1H40V11.9H24L17.8,40.3z M31.3,18.8v10.1h-2.7L31.3,18.8z M11.7,31.5h6l-1.9,8.7H0
	l6.4-28.3h9.8L11.7,31.5z M65.6,11.9l-6.3,28.3h-16V11.9h8.8V32l4.5-20.1H65.6z M152.4,11.9h-15.9v28.3h8.6v-4.1h4.1l0.9,4.1h8.6
	L152.4,11.9z M145.1,28.9V18.8l2.6,10.1H145.1z M133.8,31.9l1.7,8.4h-17.3L120,21h-6l-1.6-9h18.2l-2.1,19.9H133.8z M114.1,31.9
	l1.7,8.4H98.5l1.8-19.3h-6l-1.6-9h18.2l-2.1,19.9H114.1z M71.6,0l-9.1,40.3h11.2l1.3-6.9h8.8l1.3,6.9h11.1L87.1,0H71.6z M76.4,24.5
	l2.9-15.4l3,15.4H76.4z"/>
</svg>
