<svg height="197.98666" viewBox="0 0 795.18665 197.98666" width="795.18665" xmlns="http://www.w3.org/2000/svg"><g fill="#87b827" transform="matrix(.13333333 0 0 -.13333333 0 197.98667)"><path d="m228.734 16.6016h-228.734v1453.5784l228.734-14.75z"/><path d="m603.184 16.6016h-228.735v1036.6884l228.735-12.91zm-114.368 1352.1284c71.942 0 130.969-59.03 130.969-130.97 0-71.95-59.027-130.98-130.969-130.98-71.941 0-130.968 59.03-130.968 130.98 0 71.94 59.027 130.97 130.968 130.97"/><path d="m1149.19 844.852v-228.735h-171.553v-598.5154h-228.735v1137.1484c0 173.39 143.879 330.19 313.588 330.19 57.18 0 103.3-16.61 114.37-23.98l-9.23-219.51h-105.14c-46.12 0-84.853-38.74-84.853-86.7v-309.898z"/><path d="m1470.45 645.633h171.55v106.98c0 47.969-38.74 86.703-84.86 86.703-47.96 0-86.69-38.734-86.69-86.703zm-228.74 106.98c0 173.407 140.19 315.437 315.43 315.437 173.4 0 313.59-142.03 313.59-315.437v-221.359c0-64.555-51.65-114.356-114.36-114.356h-285.92v-99.617c0-47.949 38.73-86.699 86.69-86.699h219.52l7.38-193.6914-206.6-31.35154c-199.23-33.20706-335.73 138.35194-335.73 311.74194z"/><path d="m2066.33 16.6016v1444.3584h147.58v-439.02c40.58 12.91 105.14 18.44 149.41 18.44 156.8 0 278.54-142.036 278.54-302.525v-721.2534h-143.88v721.2534c0 79.325-64.56 142.043-143.88 142.043h-140.19v-863.2964z"/><path d="m3181.74 295.141v249.031h-142.04c-79.31 0-142.03-62.723-142.03-142.031v-107c0-79.309 62.72-143.871 142.03-143.871 79.33 0 142.04 64.562 142.04 143.871zm0 466.699c0 83.012-38.74 149.422-143.88 138.344h1.84c-59.03-1.84-134.65-9.219-197.37-12.907-1.84 53.496-3.69 73.786-5.53 114.363 49.8 18.45 121.74 36.9 182.62 38.74 184.46 3.69 306.21-145.728 306.21-306.204v-439.035c0-158.629-127.28-289.60194-285.93-289.60194-158.63 0-289.6 130.97294-289.6 289.60194v90.39c0 158.641 108.83 278.539 289.6 278.539 68.26 0 103.3-7.379 142.04-18.437z"/><path d="m3738.89 1040.38c158.65 0 289.61-129.118 289.61-289.607v-18.449c-57.18-1.847-103.3-1.847-145.72-3.687v22.136c0 77.473-64.57 142.032-143.89 142.032-77.47 0-140.2-64.559-140.2-142.032v-461.164c0-81.16 62.73-142.039 140.2-142.039 77.48 0 142.04 59.032 143.89 136.512 71.93-5.543 140.19-9.23 145.72-9.23-7.38-153.102-136.5-274.852-289.61-274.852-158.63 0-287.77 129.129-287.77 289.609v461.164c0 160.489 129.14 289.607 287.77 289.607"/><path d="m4609.91 16.6016-280.38 488.8394c-27.68 47.95-27.68 53.489 5.53 110.676l247.18 409.503h167.87l-278.55-472.229 300.68-536.7894zm-317.28 1440.6684v-1440.6684h-147.57v1440.6684z"/><path d="m4950.89 593.98h284.08v154.954c0 79.312-64.57 143.871-142.04 143.871-79.32 0-142.04-64.559-142.04-143.871zm-147.57 154.954c0 160.476 129.13 291.446 289.61 291.446 158.63 0 287.77-130.97 287.77-291.446v-226.899c0-42.433-33.21-73.785-73.79-73.785h-356.02v-156.789c0-79.32 62.72-143.891 142.04-143.891h186.31c1.84-47.9489 3.69-81.1716 7.38-114.3591l-177.09-27.67184c-180.77-31.35936-306.21 125.42994-306.21 285.92194z"/><path d="m5657.71 16.6016h-147.58v719.4144c0 160.488 125.44 309.894 309.9 306.214 62.72-1.85 101.46-16.61 143.89-36.9-1.85-44.267-3.69-81.162-5.53-114.365l-160.49 3.687c-77.48 0-140.19-83.011-140.19-158.636z"/></g></svg>